<svg width="10" height="20" viewBox="0 0 10 20" fill="none" xmlns="http://www.w3.org/2000/svg">
<path d="M8.99773 12.7969C8.94538 12.7984 8.89538 12.8203 8.85866 12.8586L5.00007 16.7172L1.14148 12.8586C1.10398 12.8195 1.05241 12.7984 0.998508 12.7976C0.916476 12.7984 0.84382 12.8476 0.81257 12.9226C0.782102 12.9984 0.80007 13.0843 0.858664 13.1414L4.85866 17.1414C4.93679 17.2195 5.06335 17.2195 5.14148 17.1414L9.14148 13.1414C9.20085 13.0843 9.21882 12.9961 9.18757 12.9203C9.15554 12.8445 9.08054 12.7953 8.99773 12.7969Z" fill="black"/>
<path d="M8.99773 7.20315C8.94538 7.20159 8.89538 7.17971 8.85866 7.14143L5.00007 3.28284L1.14148 7.14143C1.10398 7.18049 1.05241 7.20159 0.998508 7.20237C0.916476 7.20159 0.84382 7.15237 0.81257 7.07737C0.782102 7.00159 0.80007 6.91565 0.858664 6.85862L4.85866 2.85862C4.93679 2.7805 5.06335 2.7805 5.14148 2.85862L9.14148 6.85862C9.20085 6.91565 9.21882 7.00393 9.18757 7.07971C9.15554 7.15549 9.08054 7.20471 8.99773 7.20315Z" fill="black"/>
</svg>
